<svg class="c-hero-sb__arrow-1" width="13" height="27" viewBox="0 0 13 27" fill="none" xmlns="http://www.w3.org/2000/svg">
          <path d="M12.6176 15.2087C10.6103 15.9391 8.69853 16.8783 7.07353 18.3391C6.97794 18.4435 6.88235 18.5478 6.69118 18.6522C6.59559 18.7565 6.5 18.7565 6.40441 18.6522C6.30882 18.5478 6.21324 18.4435 6.02206 18.3391C5.83088 18.1304 5.54412 17.9217 5.35294 17.713C3.72794 16.4609 1.91176 15.6261 0.0955868 15H0C3.25 18.3391 5.54412 22.3043 6.5 27C7.45588 22.3043 9.75 18.3391 13 15C13 15.1043 12.8088 15.1043 12.6176 15.2087Z" fill="white"></path>
          <path d="M6.59635 19.7789C6.69574 19.6795 6.79513 19.5801 6.99392 19.4807V0H6V19.4807C6.09939 19.5801 6.19878 19.6795 6.39757 19.7789C6.39757 19.8783 6.49696 19.8783 6.59635 19.7789Z" fill="white"></path>
        </svg>
